<!DOCTYPE svg PUBLIC "-//W3C//DTD SVG 20010904//EN" "http://www.w3.org/TR/2001/REC-SVG-20010904/DTD/svg10.dtd">
<svg version="1.0" xmlns="http://www.w3.org/2000/svg" width="60px" height="60px" viewBox="0 0 2000 2000" preserveAspectRatio="xMidYMid meet">
<g id="layer1" fill="#f48020" stroke="none">
 <path d="M1453 1948 c-17 -18 -50 -62 -74 -98 -23 -36 -58 -85 -78 -109 -19 -25 -42 -57 -51 -72 -8 -15 -30 -46 -48 -70 -31 -40 -33 -47 -30 -113 l3 -69 40 -14 c86 -29 131 -57 187 -116 76 -81 101 -143 102 -257 2 -142 -34 -222 -136 -308 -58 -48 -118 -82 -163 -92 -30 -6 -30 -6 -30 -75 0 -69 1 -70 27 -73 35 -4 156 47 207 87 21 17 43 31 48 31 13 0 117 119 143 162 26 45 48 117 60 200 9 64 13 70 72 130 35 35 101 98 148 140 54 50 81 81 75 87 -6 6 -34 5 -75 -5 -36 -7 -96 -18 -135 -24 -38 -5 -84 -12 -102 -16 -29 -6 -34 -2 -83 60 -56 71 -182 176 -212 176 -15 0 -4 22 52 104 39 57 79 111 90 121 11 10 20 24 20 31 0 7 13 28 28 46 44 50 102 139 102 154 0 11 -18 14 -78 14 -75 0 -79 -1 -109 -32z"/>
 <path d="M965 1910 c-22 -4 -67 -18 -100 -30 -33 -11 -73 -25 -90 -29 -48 -13 -210 -127 -266 -189 -57 -63 -139 -180 -139 -200 0 -6 -9 -31 -19 -55 -51 -110 -68 -309 -36 -430 38 -145 115 -288 195 -363 94 -88 149 -127 232 -168 118 -58 178 -76 251 -76 l58 0 -3 142 -3 142 -40 8 c-22 5 -76 27 -121 48 -172 86 -274 244 -274 427 0 52 26 176 42 207 40 70 101 139 163 183 67 48 86 57 185 85 l45 13 0 145 c0 163 4 157 -80 140z"/>
 <path d="M1496 1598 c-28 -45 -29 -68 -5 -94 12 -13 28 -24 35 -24 14 0 114 -112 133 -147 13 -26 21 -27 74 -12 44 12 46 25 12 82 -35 60 -201 217 -229 217 -3 0 -12 -10 -20 -22z"/>
 <path d="M984 1511 c-44 -11 -138 -76 -179 -124 -20 -23 -49 -68 -65 -101 -26 -51 -30 -70 -30 -142 0 -58 6 -99 19 -134 22 -59 111 -173 149 -193 15 -8 49 -26 77 -41 27 -15 61 -26 75 -24 l25 3 0 380 c0 373 0 380 -20 382 -11 1 -34 -2 -51 -6z"/>
 <path d="M1786 1096 c-37 -31 -40 -37 -43 -94 -2 -34 -14 -103 -27 -154 -13 -51 -21 -97 -16 -101 4 -5 29 -7 55 -5 l48 3 23 65 c19 54 23 86 24 193 0 143 -2 146 -64 93z"/>
 <path d="M62 1013 c10 -110 117 -370 173 -423 14 -13 25 -28 25 -34 0 -15 172 -186 186 -186 6 0 19 -9 29 -20 26 -29 117 -81 198 -115 l67 -28 0 -88 c0 -48 4 -90 9 -94 12 -7 81 30 101 55 8 9 33 30 55 46 99 70 165 128 165 144 0 14 -12 18 -72 22 -78 6 -206 45 -274 84 -22 13 -48 24 -56 24 -19 0 -137 87 -201 149 -48 45 -163 198 -174 230 -3 9 -16 44 -30 79 -13 35 -32 96 -42 135 l-17 72 -74 3 -73 3 5 -58z"/>
 <path d="M1212 1024 c-59 -41 -63 -114 -10 -159 46 -39 97 -35 137 10 42 49 41 87 -3 131 -38 38 -85 45 -124 18z"/>
 </g>
</svg>
